<svg xmlns="http://www.w3.org/2000/svg" width="55" height="55" viewBox="0 0 55 55"><defs><style>.a{fill:#9e9e9e;fill-rule:evenodd;}</style></defs><g transform="translate(-0.001)"><path class="a" d="M27.5,24.063a1.719,1.719,0,0,1,1.719,1.719v6.875A1.719,1.719,0,0,1,27.5,34.376H20.625a1.719,1.719,0,1,1,0-3.438h5.156V25.781A1.719,1.719,0,0,1,27.5,24.063Z"/><path class="a" d="M25.781,32.656A1.719,1.719,0,0,1,27.5,30.938h6.875a1.719,1.719,0,1,1,0,3.438H29.219v5.156a1.719,1.719,0,1,1-3.438,0V32.657Z"/><path class="a" d="M3.438,13.75V48.125a3.438,3.438,0,0,0,3.438,3.438h41.25a3.438,3.438,0,0,0,3.438-3.438V13.75ZM6.876,3.437A6.875,6.875,0,0,0,0,10.312V48.125A6.875,6.875,0,0,0,6.876,55h41.25A6.875,6.875,0,0,0,55,48.125V10.313a6.875,6.875,0,0,0-6.875-6.875H6.875Z"/><path class="a" d="M12.031,0A1.719,1.719,0,0,1,13.75,1.719V3.438a1.719,1.719,0,1,1-3.438,0V1.719A1.719,1.719,0,0,1,12.031,0ZM42.969,0a1.719,1.719,0,0,1,1.719,1.719V3.438a1.719,1.719,0,1,1-3.438,0V1.719A1.719,1.719,0,0,1,42.969,0Z"/></g></svg>