<svg xmlns="http://www.w3.org/2000/svg" width="49.531" height="57.623" viewBox="0 0 49.531 57.623"><defs><style>.a{fill:#3f586e;}</style></defs><g transform="translate(-6.329 -1.599)"><path class="a" d="M31.109,32.862c-8.114-.235-10.06-6.413-10.477-8.407a3.6,3.6,0,0,1-1.973-1.114,3.244,3.244,0,0,1-.739-2.4,3.07,3.07,0,0,1,.878-2.574,2.718,2.718,0,0,1,.656-.44A11.661,11.661,0,0,1,17.322,10.7c.939-5.968,6.348-6.549,8.042-6.582a7.942,7.942,0,0,1,2.851-1.87,11.226,11.226,0,0,1,6.459-.32c4.194.974,6.991,2.841,8.318,5.55,1.889,3.851.232,8.284-.72,10.274a2.857,2.857,0,0,1,.982.5,3,3,0,0,1,1,2.689,3.239,3.239,0,0,1-.738,2.4,3.6,3.6,0,0,1-1.974,1.114C41.131,26.449,39.189,32.626,31.109,32.862ZM20.958,19.206a1.312,1.312,0,0,0-.869.275,1.744,1.744,0,0,0-.368,1.431.732.732,0,0,1-.006.16,1.812,1.812,0,0,0,.377,1.3,2.165,2.165,0,0,0,1.439.606.851.851,0,0,1,.791.726,8.574,8.574,0,0,0,8.789,7.558A8.562,8.562,0,0,0,39.859,23.7a.851.851,0,0,1,.791-.725,2.163,2.163,0,0,0,1.439-.606,1.815,1.815,0,0,0,.377-1.306.746.746,0,0,1-.006-.155,1.75,1.75,0,0,0-.406-1.469,1.494,1.494,0,0,0-.977-.227.955.955,0,0,1-.886-.319.727.727,0,0,1-.063-.848c.033-.056,3.329-5.618,1.211-9.94-1.1-2.234-3.491-3.793-7.117-4.634a9.208,9.208,0,0,0-5.284.24A6,6,0,0,0,26.514,5.4a.94.94,0,0,1-.8.32c-.233-.017-5.742-.334-6.605,5.142h0s-.249,4.356,2.588,7a.735.735,0,0,1,.171.88.865.865,0,0,1-.852.473Z" transform="translate(0)"/><path class="a" d="M38.3,19.225a.8.8,0,0,1-.8-.766c-.01-.207-.258-5.04-3.866-5.5a12.181,12.181,0,0,1-9.29-2.691c-1.02.767-3.37,3.1-2.918,8.073a.8.8,0,0,1-1.59.145c-.663-7.3,4.022-9.83,4.222-9.934a.8.8,0,0,1,.923.131,10.684,10.684,0,0,0,8.5,2.682.894.894,0,0,1,.222-.008c4.067.423,5.31,4.793,5.4,7.04a.8.8,0,0,1-.766.83Z" transform="translate(1.477)"/><path class="a" d="M55.009,57.6H7.18a.827.827,0,0,1-.851-.8V47.882c.013-5.869,5.077-10.621,11.323-10.625h1.635a.8.8,0,1,1,0,1.6H17.652c-5.306,0-9.609,4.039-9.621,9.025V56H54.158V47.882c-.006-4.982-4.3-9.019-9.6-9.025H42.8a.8.8,0,1,1,0-1.6h1.752c6.241.008,11.3,4.76,11.307,10.625V56.8A.827.827,0,0,1,55.009,57.6Z" transform="translate(0 1.622)"/><path class="a" d="M32.274,57.6a.8.8,0,0,1-.791-.919L34.72,35.254a.8.8,0,0,1,1.022-.646l5.587,1.684a.8.8,0,0,1,.486,1.12l-2.221,4.456,1.288,1.446a.8.8,0,0,1,.08.953L32.954,57.221A.8.8,0,0,1,32.274,57.6Zm3.891-21.194-2.516,16.65,5.642-9.12-1.25-1.4a.8.8,0,0,1-.119-.889l2.038-4.091Z" transform="translate(2.081 1.622)"/><path class="a" d="M26.834,57.6a.8.8,0,0,1-.681-.379L18.142,44.269a.8.8,0,0,1,.08-.953L19.51,41.87,17.29,37.414a.8.8,0,0,1,.486-1.12l5.587-1.684a.8.8,0,0,1,1.021.646l3.239,21.426a.8.8,0,0,1-.789.917ZM19.817,43.934l5.642,9.12L22.943,36.406l-3.8,1.144,2.038,4.091a.8.8,0,0,1-.118.889Z" transform="translate(0.9 1.622)"/><path class="a" d="M29.614,42.684a43.371,43.371,0,0,1-5.175-.314.8.8,0,1,1,.19-1.588,40.334,40.334,0,0,0,9.846,0,.8.8,0,1,1,.2,1.587,40.4,40.4,0,0,1-5.061.314Z" transform="translate(1.49 1.175)"/><path class="a" d="M35.513,36.174a.8.8,0,0,1-.64-.324c-1.189-1.607-1.4-4.793-1.424-5.15a.8.8,0,0,1,.752-.845.809.809,0,0,1,.845.752c.049.842.345,3.254,1.113,4.292a.8.8,0,0,1-.64,1.275Z" transform="translate(1.856 0.922)"/><path class="a" d="M23.6,36.174a.8.8,0,0,1-.64-1.275c.77-1.04,1.065-3.451,1.114-4.292a.8.8,0,1,1,1.6.093c-.02.358-.24,3.543-1.424,5.15a.8.8,0,0,1-.65.324Z" transform="translate(1.127 0.922)"/><path class="a" d="M45.724,46.387a.8.8,0,0,1-.8-.777c-.15-5.21-2.13-6.849-2.15-6.865a.806.806,0,0,1-.139-1.12.8.8,0,0,1,1.108-.154c.106.08,2.606,2.022,2.781,8.092a.8.8,0,0,1-.776.822Z" transform="translate(2.989 1.234)"/><path class="a" d="M45.728,51.11a3.162,3.162,0,1,1,3.162-3.162,3.162,3.162,0,0,1-3.162,3.162Zm0-4.725a1.562,1.562,0,1,0,1.562,1.562,1.562,1.562,0,0,0-1.562-1.562Z" transform="translate(2.989 1.622)"/><path class="a" d="M12.866,46.387a.8.8,0,0,1-.8-.743c-.436-6.14,2.947-8.1,3.091-8.183a.8.8,0,1,1,.786,1.394c-.122.072-2.64,1.626-2.282,6.677a.8.8,0,0,1-.742.854Z" transform="translate(0 1.235)"/><path class="a" d="M11.247,52.793a.8.8,0,0,1-.64-.315,5,5,0,0,1-.847-1.718A4.81,4.81,0,0,1,12.9,44.766a4.48,4.48,0,0,1,3.44.426,5.134,5.134,0,0,1,2.5,5.29.8.8,0,1,1-1.578-.262,3.538,3.538,0,0,0-1.7-3.632,2.9,2.9,0,0,0-2.222-.282A3.211,3.211,0,0,0,11.3,50.333a3.414,3.414,0,0,0,.581,1.176.8.8,0,0,1-.636,1.284Z" transform="translate(0 1.622)"/><path class="a" d="M18.061,51.151a.638.638,0,0,1-.1,0l-.9-.106a.8.8,0,1,1,.189-1.59l.9.107a.8.8,0,0,1-.094,1.594Z" transform="translate(0.681 1.622)"/><path class="a" d="M11.247,52.8a.8.8,0,0,1-.278-1.55l.96-.354a.8.8,0,0,1,.56,1.5l-.96.355a.8.8,0,0,1-.282.05Z" transform="translate(0 1.622)"/></g></svg>