<svg xmlns="http://www.w3.org/2000/svg" width="53.574" height="53.428" viewBox="0 0 53.574 53.428"><defs><style>.a{fill:#3f586e;}</style></defs><path class="a" d="M7.927,17.673H1.5a1.5,1.5,0,0,0-1.5,1.5V35.24a1.5,1.5,0,0,0,1.5,1.5H7.927a1.5,1.5,0,0,0,1.5-1.5V19.173a1.5,1.5,0,0,0-1.5-1.5Z" transform="translate(0 1.225)"/><path class="a" d="M36.043,35.027a1.5,1.5,0,0,0,1.5-1.5v-3.32h.107a1.5,1.5,0,0,0,0-3h-.107v-8.14a1.5,1.5,0,0,0-2.561-1.061l-6.9,6.9a5.428,5.428,0,0,0-1.569,3.8,1.5,1.5,0,0,0,1.5,1.5h6.533v3.32a1.5,1.5,0,0,0,1.5,1.5Zm-6-7.82a2.367,2.367,0,0,1,.163-.181l4.34-4.338v4.52Z" transform="translate(1.632 1.16)"/><path class="a" d="M23.887,33.527a1.5,1.5,0,0,0-1.5-1.5h-6a2.327,2.327,0,0,1,.162-.181l6.9-6.9a1.5,1.5,0,0,0,.44-1.061v-.8a5.517,5.517,0,0,0-11.033,0v0a1.5,1.5,0,0,0,3,0,2.517,2.517,0,0,1,5.033,0v.182l-6.464,6.461a5.428,5.428,0,0,0-1.569,3.8,1.5,1.5,0,0,0,1.5,1.5h8.033a1.5,1.5,0,0,0,1.5-1.5Z" transform="translate(0.76 1.16)"/><path class="a" d="M26.787,3c8.008,0,14.756,5.171,16.664,12.148a5,5,0,0,1,2.135-.474h1.027C44.453,6.265,36.384,0,26.787,0S9.121,6.265,6.961,14.673H7.988a5,5,0,0,1,2.135.474C12.031,8.171,18.779,3,26.787,3Z"/><path class="a" d="M40.973,39.106a9.761,9.761,0,0,1-8.946,5.881H30.067a4.713,4.713,0,1,0,0,3h1.959A12.768,12.768,0,0,0,43.952,39.74h-.679a4.472,4.472,0,0,1-2.3-.634Z" transform="translate(2.374 2.228)"/><path class="a" d="M49.7,17.673H43.273a1.5,1.5,0,0,0-1.5,1.5V35.24a1.5,1.5,0,0,0,1.5,1.5H49.7a1.5,1.5,0,0,0,1.5-1.5V19.173a1.5,1.5,0,0,0-1.5-1.5Z" transform="translate(2.374 1.225)"/></svg>