<svg id="route_2_" data-name="route (2)" xmlns="http://www.w3.org/2000/svg" width="51.2" height="51.2" viewBox="0 0 51.2 51.2">
  <g id="Group_63" data-name="Group 63">
    <path id="Path_206" data-name="Path 206" d="M9.474,29.618A3,3,0,1,0,13.828,33.2H21.6a3,3,0,0,1,0,6H9.6a5,5,0,1,0,0,10h10a1,1,0,0,0,0-2H9.6a3,3,0,1,1,0-6h12a5,5,0,0,0,0-10H13.828a3.015,3.015,0,0,0-1.3-1.582l7.638-12.532a11,11,0,1,0-18.327,0ZM11,33.2a1,1,0,1,1,1-1A1,1,0,0,1,11,33.2ZM11,2a9,9,0,0,1,7.489,13.993l-.022.035L11,28.279S3.519,16.005,3.511,15.993A9,9,0,0,1,11,2Z" fill="#3f586e"/>
    <path id="Path_207" data-name="Path 207" d="M11,16a5,5,0,1,0-5-5A5.006,5.006,0,0,0,11,16Zm0-8a3,3,0,1,1-3,3A3,3,0,0,1,11,8Z" fill="#3f586e"/>
    <path id="Path_208" data-name="Path 208" d="M40.2,16.6a11,11,0,0,0-9.158,17.1l7.609,11.936a3.015,3.015,0,0,0-1.28,1.569H28.6a1,1,0,0,0,0,2h8.772a3,3,0,1,0,4.376-3.569L49.358,33.7A11,11,0,0,0,40.2,16.6Zm0,32.6a1,1,0,1,1,1-1A1,1,0,0,1,40.2,49.2Zm7.489-16.606L40.2,44.34,32.711,32.594a9,9,0,1,1,14.977,0Z" fill="#3f586e"/>
    <path id="Path_209" data-name="Path 209" d="M40.2,22.6a5,5,0,1,0,5,5A5.006,5.006,0,0,0,40.2,22.6Zm0,8a3,3,0,1,1,3-3A3,3,0,0,1,40.2,30.6Z" fill="#3f586e"/>
    <circle id="Ellipse_21" data-name="Ellipse 21" cx="1" cy="1" r="1" transform="translate(23.1 47.2)" fill="#3f586e"/>
  </g>
</svg>
