<svg xmlns="http://www.w3.org/2000/svg" width="47.236" height="49.481" viewBox="0 0 47.236 49.481">
  <g id="location_3_" data-name="location (3)" transform="translate(-2.267)">
    <g id="Group_62" data-name="Group 62">
      <path id="Path_203" data-name="Path 203" d="M14.275,43.713A43.469,43.469,0,0,0,25.6,45.047a43.465,43.465,0,0,0,11.325-1.334c3.725-1.052,5.614-2.576,5.614-4.528s-1.889-3.475-5.614-4.527a35.319,35.319,0,0,0-5.894-1.064c4.276-7.3,8.514-15.563,8.514-19.65a13.944,13.944,0,0,0-27.888,0c0,4.087,4.237,12.351,8.514,19.649a35.306,35.306,0,0,0-5.894,1.065c-3.725,1.052-5.614,2.576-5.614,4.527S10.55,42.661,14.275,43.713ZM25.6,3A10.956,10.956,0,0,1,36.544,13.944c0,3.1-3.835,11.225-10.259,21.735a.8.8,0,0,1-1.37,0c-6.424-10.51-10.259-18.635-10.259-21.735A10.957,10.957,0,0,1,25.6,3ZM15.635,37.4a36.464,36.464,0,0,1,6.241-.941q.24.4.478.786a3.8,3.8,0,0,0,6.49,0q.238-.389.478-.786a36.464,36.464,0,0,1,6.241.942c2.742.7,3.743,1.484,3.949,1.787-.206.3-1.207,1.088-3.949,1.787A42.094,42.094,0,0,1,25.6,42.047a42.092,42.092,0,0,1-9.964-1.075c-2.742-.7-3.743-1.484-3.949-1.787C11.892,38.883,12.894,38.1,15.635,37.4Z" fill="#3f586e"/>
      <path id="Path_204" data-name="Path 204" d="M43.207,35.877a1.411,1.411,0,0,0-1.879.527,1.309,1.309,0,0,0,.547,1.811c1.648.873,2.594,1.84,2.594,2.654,0,1-1.464,2.539-5.574,3.884a51.147,51.147,0,0,1-15.277,2.061A51.147,51.147,0,0,1,8.341,44.753c-4.109-1.345-5.574-2.889-5.574-3.884,0-.814.945-1.782,2.594-2.654A1.309,1.309,0,0,0,5.908,36.4a1.411,1.411,0,0,0-1.879-.527C2.191,36.85,0,38.505,0,40.868c0,1.811,1.293,4.394,7.451,6.41a54.039,54.039,0,0,0,16.167,2.2,54.039,54.039,0,0,0,16.167-2.2c6.158-2.016,7.451-4.6,7.451-6.41C47.236,38.505,45.045,36.85,43.207,35.877Z" transform="translate(2.267)" fill="#3f586e"/>
      <path id="Path_205" data-name="Path 205" d="M31.2,12.987a5.6,5.6,0,1,0-5.6,5.6A5.611,5.611,0,0,0,31.2,12.987Zm-8.209,0a2.6,2.6,0,1,1,2.6,2.6A2.608,2.608,0,0,1,23,12.987Z" fill="#3f586e"/>
    </g>
  </g>
</svg>
