<?xml version="1.0" encoding="UTF-8"?>
<svg xmlns="http://www.w3.org/2000/svg" xmlns:xlink="http://www.w3.org/1999/xlink" viewBox="0 0 150 150" width="150px" height="150px">
<g id="surface34935893">
<path style=" stroke:none;fill-rule:nonzero;fill:rgb(20%,20%,20%);fill-opacity:1;" d="M 75 6 C 36.929688 6 6 36.929688 6 75 C 6 113.070312 36.929688 144 75 144 C 113.070312 144 144 113.070312 144 75 C 144 36.929688 113.070312 6 75 6 Z M 75 12 C 109.828125 12 138 40.171875 138 75 C 138 109.828125 109.828125 138 75 138 C 40.171875 138 12 109.828125 12 75 C 12 40.171875 40.171875 12 75 12 Z M 79.742188 30 C 71.785156 30 65.75 32.601562 62.035156 37.203125 C 58.316406 41.800781 57 47.941406 57 54.679688 L 57 60 L 51 60 C 49.34375 60 48 61.34375 48 63 L 48 78 C 48 79.65625 49.34375 81 51 81 L 57 81 L 57 117 C 57 118.65625 58.34375 120 60 120 L 78 120 C 79.65625 120 81 118.65625 81 117 L 81 81 L 93 81 C 94.429688 81 95.660156 79.988281 95.941406 78.585938 L 98.941406 63.585938 C 99.117188 62.703125 98.886719 61.792969 98.320312 61.097656 C 97.75 60.402344 96.898438 60 96 60 L 81 60 L 81 53.421875 C 81 51.964844 81.09375 51.976562 81.515625 51.703125 C 81.9375 51.429688 83.460938 51 86.132812 51 L 96 51 C 97.65625 51 99 49.65625 99 48 L 99 36 C 99 34.730469 98.203125 33.601562 97.007812 33.175781 C 97.007812 33.175781 88.367188 30 79.742188 30 Z M 79.742188 36 C 85.417969 36 90.683594 37.53125 93 38.257812 L 93 45 L 86.132812 45 C 82.992188 45 80.441406 45.253906 78.253906 46.675781 C 76.0625 48.097656 75 50.820312 75 53.417969 L 75 63 C 75 64.65625 76.34375 66 78 66 L 92.339844 66 L 90.539062 75 L 78 75 C 76.34375 75 75 76.34375 75 78 L 75 114 L 63 114 L 63 78 C 63 76.34375 61.65625 75 60 75 L 54 75 L 54 66 L 60 66 C 61.65625 66 63 64.65625 63 63 L 63 54.679688 C 63 48.742188 64.214844 44.046875 66.699219 40.972656 C 69.179688 37.902344 73.011719 36 79.742188 36 Z M 79.742188 36 "/>
</g>
</svg>
