<svg xmlns="http://www.w3.org/2000/svg" width="33" height="55" viewBox="0 0 33 55"><defs><style>.a{fill:#3f586e;}</style></defs><path class="a" d="M19.938,49.5A3.447,3.447,0,0,0,16.5,46.063a3.438,3.438,0,1,0,2.428,5.865A3.311,3.311,0,0,0,19.938,49.5Zm8.938-6.875V12.375A1.393,1.393,0,0,0,27.5,11H5.5a1.393,1.393,0,0,0-1.375,1.375v30.25A1.393,1.393,0,0,0,5.5,44h22a1.393,1.393,0,0,0,1.375-1.375ZM20.625,6.188a.608.608,0,0,0-.688-.688H13.063a.608.608,0,0,0-.688.688.608.608,0,0,0,.688.688h6.875a.608.608,0,0,0,.688-.688ZM33,5.5v44A5.577,5.577,0,0,1,27.5,55H5.5a5.286,5.286,0,0,1-3.867-1.633A5.285,5.285,0,0,1,0,49.5V5.5A5.285,5.285,0,0,1,1.633,1.633,5.285,5.285,0,0,1,5.5,0h22a5.285,5.285,0,0,1,3.867,1.633A5.286,5.286,0,0,1,33,5.5Z"/></svg>